<svg xmlns="http://www.w3.org/2000/svg" width="405.09" height="104.08" viewBox="0 0 405.09 104.08"><title>Asset 1</title><g id="Layer_2" data-name="Layer 2"><g id="Layer_1-2" data-name="Layer 1"><path d="M97.81,39.56l10-.21c2.48,0,3.72.18,3.72.52q0,1.35-15.08,2.37-9.6,18.81-9.61,25.62,0,4.76,3,4.75a5,5,0,0,0,2.84-1.39,6.64,6.64,0,0,1,2.07-1.4c.24,0,.36.17.36.52A5.28,5.28,0,0,1,92,73.44a11,11,0,0,1-4.44,1.24,14.88,14.88,0,0,1-2.84-.21c-1.66-.62-2.48-2.62-2.48-6q0-10.43,8-26.55l-12.39.31A258.4,258.4,0,0,1,50,66Q29.12,81.18,17.35,81.18a10,10,0,0,1-1.44-.1Q0,79.75,0,64.76,0,55.88,5.58,46A70.17,70.17,0,0,1,25.93,23.39Q38.83,14,49.06,14.05t10.23,7.54a25.68,25.68,0,0,1-3.1,11.26Q53.08,39,49.89,40.7a2.09,2.09,0,0,1-.67.1c-.25,0-.37-.07-.37-.21L52.26,35c2.34-3.64,3.52-6.85,3.52-9.6A11.24,11.24,0,0,0,54,18.75q-1.81-2.54-5.73-2.53-8.07,0-19.27,9a58.31,58.31,0,0,0-17,22.11Q6.09,60.42,6.09,67.76q0,11.05,11.26,11,10.74,0,29.13-13.84,8.16-6.09,26.54-23a61.82,61.82,0,0,0-6.71.73c-4.41.82-6.47.69-6.2-.42.28-2.54,1.59-3.82,3.93-3.82a96,96,0,0,0,11.46.83q8.88-8.16,26.55-26.75Q113.93,0,116.51,0c.76,0,1.14.59,1.14,1.76a25.35,25.35,0,0,1-.93,5.47q-.93,3.72-2.07,4.54a18.81,18.81,0,0,0-4.44,4.5,81.32,81.32,0,0,0-5.89,10.64Q100.5,34.71,97.81,39.56Zm8.27-25.2L79.63,39.15h6.1c1.44.07,3.23.1,5.37.1Q94.1,33.36,106.08,14.36Z"/><path d="M109.48,63.93q0,3.1,3.41,3.1t8.78-3.61a49,49,0,0,0,10.43-9.81c.83-1.1,1.48-1.66,2-1.66s.72.21.72.62-1.41,2.21-4.24,5.37q-10.32,11.37-17.24,11.37a10.16,10.16,0,0,1-5.79-1.6,5.57,5.57,0,0,1-2.37-5A21.66,21.66,0,0,1,106.9,55a137.75,137.75,0,0,1,9.61-17.66q12.08-19.63,17.14-19.63a3.63,3.63,0,0,1,2.12.78,2.5,2.5,0,0,1,1.19,1.7l-9.14,12.29q-6.76,9.09-9.35,13.07t-3.87,5.94c-.87,1.31-1.5,2.32-1.91,3s-.9,1.67-1.45,2.84A14.91,14.91,0,0,0,109.48,63.93Z"/><path d="M135.82,70.44a6.36,6.36,0,0,1-2.06-.31q-6.61-1.86-6.61-7.43,0-7.23,9.08-16.74t16.32-9.5a5.73,5.73,0,0,1,3.88,1.29,4,4,0,0,1,1.5,3.15q0,5.79-8.73,11.05T135,57.22a4.48,4.48,0,0,1-1.45-.21A12,12,0,0,0,132,62.9q0,5.37,5.11,5.37t13.28-6.92a66.08,66.08,0,0,0,10.74-10.74c.62-.83,1.15-1.24,1.6-1.24s.67.21.67.62a3.53,3.53,0,0,1-.83,1.76,63.12,63.12,0,0,1-13.42,13Q141.29,70.44,135.82,70.44ZM155.34,40.7c0-.83-.87-1.24-2.63-1.24s-4.25,1.34-7.49,4A46.32,46.32,0,0,0,135.1,54.74a4.14,4.14,0,0,0,1.34.21q3.93,0,10.49-4.18t8.21-9.14A2.74,2.74,0,0,0,155.34,40.7Z"/><path d="M194.49,64.56q-7.44,6.19-12.34,6.19t-6.46-7.12A65,65,0,0,1,175,55q-12.61,13.42-18.91,24.27a1,1,0,0,1-.82.42c-.83,0-1.24-.38-1.24-1.14a.7.7,0,0,1,.21-.52A163,163,0,0,1,175,51.33q.41-14.14.51-15.9-2.37.51-10.12,12a69.94,69.94,0,0,1-6.71,8.88q-2.9,3.1-3.46,3.57a1.8,1.8,0,0,1-1.14.46c-.38,0-.57-.17-.57-.52s1.11-1.73,3.31-4.18a107.86,107.86,0,0,0,8.78-12q5.48-8.31,7.85-10.48A6.83,6.83,0,0,1,177.86,31a6.05,6.05,0,0,1,3,.56,1.73,1.73,0,0,1,.68,2c-.18.93-.31,1.74-.42,2.42s-.19,1.49-.26,2.38q-.61,4.86-.72,8,5.06-4.85,22.83-19.93a1,1,0,0,1,.72-.21c.34,0,.79.3,1.34.88a2.61,2.61,0,0,1,.83,1.76,2.43,2.43,0,0,1-.83,1.7q-3.3,2.69-11.51,8.62A151,151,0,0,0,179.92,50c-.06,1.45-.1,3.41-.1,5.89a23.68,23.68,0,0,0,.93,6.82c.83,2.68,2.34,4,4.55,4q5.88,0,18.17-14.15c.69-.68,1.21-1,1.55-1s.52.23.52.67a2.65,2.65,0,0,1-.83,1.6A95.92,95.92,0,0,1,194.49,64.56Z"/><path d="M235.6,38.22l1.44-.31a3.21,3.21,0,0,1,2.17.93c.69.62,1,1.1,1,1.44s-2.13,3.67-6.4,10-6.4,10.69-6.4,13.17a1.91,1.91,0,0,0,.1.62c.34,1.58,1.1,2.37,2.27,2.37q5.37,0,19.63-17.76a.86.86,0,0,1,.72-.41c.27,0,.41.25.41.77a3.71,3.71,0,0,1-.93,2Q236.43,68.69,229.5,68.69a5.07,5.07,0,0,1-1.75-.31,6.68,6.68,0,0,1-4.55-6.82,15.57,15.57,0,0,1,.41-3.51l-6.4,6.2q-6.09,5.37-8.83,5.37a8.91,8.91,0,0,1-5.22-1.76,6.48,6.48,0,0,1-2.79-5.47q0-7.55,10.54-18t19.31-10.48c2.28,0,3.79.79,4.55,2.37l.52,1.4C235.42,38,235.53,38.22,235.6,38.22ZM204.71,63.63q0,3.7,2.58,3.71,6,0,16.32-13.11l10.95-15.08a2.84,2.84,0,0,0-2.68-1.45q-6.3,0-16.74,9.76T204.71,63.63Z"/><path d="M260.38,36.46c1.86,0,2.79.72,2.79,2.17a2.71,2.71,0,0,1-.31,1.24q-9.28,12.92-11.15,19.52,24.06-24.06,29.23-24.07a5.47,5.47,0,0,1,.93-.1c1.92,0,2.89.86,2.89,2.58a2.76,2.76,0,0,1-.21,1c-.14.34-1.51,2.2-4.13,5.57a96.41,96.41,0,0,0-7.69,10.33c-2.1,3.31-3.15,6.06-3.15,8.27s.48,3.3,1.44,3.3q4.55,0,15.81-12.5a9.23,9.23,0,0,0,.72-.93Q289.09,51,289.41,51c.21,0,.31.35.31,1a4.71,4.71,0,0,1-1.45,2.68q-12.81,14.57-18.18,14.57-5.05,0-5.06-5.58t4.13-12.81l6.61-10.74a79.91,79.91,0,0,0-12.49,11.31q-5.47,6.15-10,11.93c-3,3.86-4.74,5.78-5.22,5.78a2.76,2.76,0,0,1-2.42-1.29,5.53,5.53,0,0,1-.88-3.2,14.06,14.06,0,0,1,1.34-5.11q1.34-3.21,3.41-7.75l-6.2,6.51c-1.51,1.51-2.46,2.27-2.84,2.27s-.57-.22-.57-.67a2.29,2.29,0,0,1,.83-1.5,87.22,87.22,0,0,0,6.61-7.33q2.69-3.51,11.05-13.43A2.53,2.53,0,0,1,260.38,36.46Z"/><path d="M319.36,37.8Q330.92,19,335.47,19a6.46,6.46,0,0,1,2,.47c.86.31,1.29.77,1.29,1.39a2.72,2.72,0,0,1-.52,1.35Q330,32.34,326,37.39q-12.18,15.39-13.43,22.1a14.29,14.29,0,0,0-.31,2.9q0,4.64,3.83,4.64,7.63,0,19.93-14.15a4,4,0,0,1,1.76-1.18q.72-.16.72.36a2.11,2.11,0,0,1-.62,1.24q-12,14.36-21.28,16a8.6,8.6,0,0,1-1.44.1,5.54,5.54,0,0,1-4.81-2.22,8.09,8.09,0,0,1-1.6-4.8A20.93,20.93,0,0,1,309.86,56l-8.37,8.37q-5.69,5.27-8.93,5.27a8.32,8.32,0,0,1-5.42-1.76,6.46,6.46,0,0,1-2.59-5.47q0-7.55,10.54-18T314.4,33.88c1.93,0,3.27.52,4,1.55A7.47,7.47,0,0,1,319.36,37.8ZM288.89,63.63q0,3.7,2.58,3.71,4.44,0,14.77-12.18,1.86-2.17,12.4-16.22a2.63,2.63,0,0,0-2.48-1.24q-6.41,0-16.84,9.76T288.89,63.63Z"/><path d="M338.88,70.44a6.36,6.36,0,0,1-2.06-.31q-6.61-1.86-6.61-7.43,0-7.23,9.09-16.74t16.32-9.5a5.72,5.72,0,0,1,3.87,1.29A4,4,0,0,1,361,40.9q0,5.79-8.73,11.05t-14.2,5.27a4.48,4.48,0,0,1-1.45-.21,12,12,0,0,0-1.55,5.89c0,3.58,1.71,5.37,5.11,5.37S348,66,353.45,61.35a66.08,66.08,0,0,0,10.74-10.74c.62-.83,1.15-1.24,1.6-1.24s.67.21.67.62a3.53,3.53,0,0,1-.83,1.76,63.12,63.12,0,0,1-13.42,13Q344.35,70.44,338.88,70.44ZM358.4,40.7c0-.83-.87-1.24-2.63-1.24s-4.25,1.34-7.49,4a46.32,46.32,0,0,0-10.12,11.26,4.14,4.14,0,0,0,1.34.21q3.93,0,10.49-4.18t8.21-9.14A2.74,2.74,0,0,0,358.4,40.7Z"/><path d="M381.23,69.62q-7.74,0-7.75-8.58a23.72,23.72,0,0,1,2.28-9.5,42.49,42.49,0,0,1,4.95-8.68,6.86,6.86,0,0,1-1.34.11q-2.47,0-4.13-3.51l-7.64,9.91c-4.27,5.31-6.75,8-7.44,8-.34,0-.52-.13-.52-.41,0-.69.59-1.68,1.76-3q9-10.44,12.7-17.67,2.38-9,6-9c1.59,0,2.38.69,2.38,2.06s-.86,3.14-2.58,5.27l-2.48,3.31c0,1.44,1.06,2.17,3.2,2.17a8.23,8.23,0,0,0,4.13-1.35l2.69-1.65a3,3,0,0,1,1-.1,2.53,2.53,0,0,1,1.76,1,1.84,1.84,0,0,1,.61,1.86l-7.12,9q-6.61,8.46-6.61,13.37t4.54,4.91q4.75,0,11.67-5.06a49.81,49.81,0,0,0,7.54-6.72q3.21-3.72,3.52-3.72.72,0,.72.78a3,3,0,0,1-.93,1.81l-3.31,3.71a61.21,61.21,0,0,1-6.19,5.58Q386.5,69.63,381.23,69.62Z"/><path d="M189.23,80.69h9v.68H190v7.39h7.65v.68H190v9.43h-.78Z"/><path d="M210.36,96.5a4.61,4.61,0,0,1-2,2,5.57,5.57,0,0,1-2.72.74,6.17,6.17,0,0,1-2-.32,4.25,4.25,0,0,1-1.6-1,4.48,4.48,0,0,1-1-1.64,6.58,6.58,0,0,1-.38-2.35v-9h.76v8.85a6.21,6.21,0,0,0,.37,2.31,3.6,3.6,0,0,0,2.43,2.23,5.63,5.63,0,0,0,1.63.23,5,5,0,0,0,1.49-.26,4.52,4.52,0,0,0,1.46-.83A4.8,4.8,0,0,0,209.91,96a4.27,4.27,0,0,0,.45-2V84.88h.73v14h-.73Z"/><path d="M214.55,98.87h-.73v-14h.73V88.1a6.19,6.19,0,0,1,.6-1.13,5.46,5.46,0,0,1,.87-1,4.63,4.63,0,0,1,1.14-.76,3.23,3.23,0,0,1,1.34-.29h.36v.83a.61.61,0,0,0-.17,0h-.17a2.88,2.88,0,0,0-1.64.5,4.45,4.45,0,0,0-1.26,1.26,6.37,6.37,0,0,0-.79,1.64,5.46,5.46,0,0,0-.28,1.67Z"/><path d="M221.62,98.87h-.73v-14h.73v2.37a4.56,4.56,0,0,1,2-2,5.55,5.55,0,0,1,2.72-.73,4.68,4.68,0,0,1,5,5.26v9h-.73V90a5.93,5.93,0,0,0-.38-2.29,3.61,3.61,0,0,0-1-1.46,3.57,3.57,0,0,0-1.42-.77,6.05,6.05,0,0,0-1.63-.23,4.71,4.71,0,0,0-1.49.27,4.23,4.23,0,0,0-1.46.82,4.8,4.8,0,0,0-1.11,1.42,4.22,4.22,0,0,0-.45,2Z"/><path d="M234.85,82.23H234V79.89h.83Zm0,16.64h-.73v-14h.73Z"/><path d="M239.43,85.56V98.87h-.75V85.56h-2.05v-.68h2.05V81.32l.75-.56v4.12h2v.68Z"/><path d="M253.06,96.5a4.63,4.63,0,0,1-2,2,5.53,5.53,0,0,1-2.71.74,6.17,6.17,0,0,1-2-.32,4.25,4.25,0,0,1-1.6-1,4.48,4.48,0,0,1-1-1.64,6.36,6.36,0,0,1-.38-2.35v-9h.75v8.85a6.2,6.2,0,0,0,.38,2.31,3.61,3.61,0,0,0,2.42,2.23,5.7,5.7,0,0,0,1.64.23,4.92,4.92,0,0,0,1.48-.26,4.47,4.47,0,0,0,1.47-.83A4.94,4.94,0,0,0,252.6,96a4.27,4.27,0,0,0,.46-2V84.88h.73v14h-.73Z"/><path d="M257.25,98.87h-.73v-14h.73V88.1a5.16,5.16,0,0,1,.6-1.13,5.46,5.46,0,0,1,.87-1,4.45,4.45,0,0,1,1.14-.76,3.23,3.23,0,0,1,1.34-.29h.36v.83l-.17,0h-.17a2.88,2.88,0,0,0-1.64.5,4.45,4.45,0,0,0-1.26,1.26,6.37,6.37,0,0,0-.79,1.64,5.46,5.46,0,0,0-.28,1.67Z"/><path d="M273.86,98.67a8.2,8.2,0,0,1-3.74.86,7.07,7.07,0,0,1-3-.63,7.72,7.72,0,0,1-2.38-1.66,7.88,7.88,0,0,1-1.6-2.44,7.46,7.46,0,0,1-.58-2.92,7.9,7.9,0,0,1,.54-2.9,7.76,7.76,0,0,1,1.53-2.44A7.47,7.47,0,0,1,267,84.86a6.76,6.76,0,0,1,2.9-.64,6.92,6.92,0,0,1,2.71.56,7.72,7.72,0,0,1,2.31,1.52,7.21,7.21,0,0,1,1.6,2.24,6.39,6.39,0,0,1,.59,2.73v.07H263.39a1.06,1.06,0,0,0,0,.25v.26a6.91,6.91,0,0,0,.54,2.72,7.58,7.58,0,0,0,1.47,2.23,6.77,6.77,0,0,0,2.14,1.5,6.41,6.41,0,0,0,2.6.54,7.16,7.16,0,0,0,3.32-.79,9.37,9.37,0,0,0,2.6-1.91l.48.56A8.65,8.65,0,0,1,273.86,98.67Zm-6.27-13.31a6.4,6.4,0,0,0-1.92,1.22,7.16,7.16,0,0,0-1.43,1.82,7,7,0,0,0-.78,2.28h12.82a5.81,5.81,0,0,0-.71-2.25,6.74,6.74,0,0,0-1.46-1.84,6.86,6.86,0,0,0-2-1.23,6,6,0,0,0-4.54,0Z"/><path d="M295.07,97.7l-1.14-1.44a9.3,9.3,0,0,1-2.43,2.29,5.83,5.83,0,0,1-3.35.9,4.68,4.68,0,0,1-1.78-.36,5.12,5.12,0,0,1-1.57-1,5.14,5.14,0,0,1-1.55-3.74,4.51,4.51,0,0,1,.39-1.9,6.69,6.69,0,0,1,1-1.56,9.17,9.17,0,0,1,1.4-1.3c.53-.4,1.06-.79,1.6-1.16-.76-1-1.37-1.81-1.83-2.5a4.11,4.11,0,0,1-.68-2.3,3.27,3.27,0,0,1,1.06-2.47,3.79,3.79,0,0,1,2.74-1,4.54,4.54,0,0,1,1.73.3,3.63,3.63,0,0,1,1.21.79,3.22,3.22,0,0,1,.7,1.1,3.26,3.26,0,0,1,.23,1.22,3.36,3.36,0,0,1-.32,1.46,5.11,5.11,0,0,1-.87,1.23,10.47,10.47,0,0,1-1.24,1.11l-1.44,1.09-.1.08a.28.28,0,0,1-.09.07l1.1,1.38c.42.51.85,1,1.29,1.61l1.38,1.71c.47.59.92,1.15,1.34,1.69.33-.54.62-1.09.89-1.65s.51-1.11.72-1.64l.68.43c-.22.56-.48,1.14-.78,1.75a16.71,16.71,0,0,1-1,1.76c.65.83,1.21,1.55,1.69,2.15s.78,1,.89,1.09v0h-1Zm-3.9.13a9.48,9.48,0,0,0,2.24-2.23c-.48-.61-1-1.24-1.51-1.88l-1.48-1.86-1.31-1.64-1-1.24c-.44.29-.91.61-1.39,1a8.71,8.71,0,0,0-1.33,1.16,5.65,5.65,0,0,0-1,1.42,4,4,0,0,0-.39,1.79,4.19,4.19,0,0,0,.37,1.77,4.59,4.59,0,0,0,.94,1.4,4.47,4.47,0,0,0,1.31.93,3.71,3.71,0,0,0,1.5.34A5.1,5.1,0,0,0,291.17,97.83ZM288.27,88a.87.87,0,0,1,.22-.17l.22-.15a22.63,22.63,0,0,0,2.3-1.92,3,3,0,0,0,1-2.22,2.88,2.88,0,0,0-.17-.94,2.38,2.38,0,0,0-.55-.87,2.93,2.93,0,0,0-1-.64,3.45,3.45,0,0,0-1.39-.26,3,3,0,0,0-2.18.81,2.64,2.64,0,0,0-.84,2,3.49,3.49,0,0,0,.6,2c.39.6,1,1.36,1.69,2.29Z"/><path d="M303.21,80.69h3.63a8.2,8.2,0,0,1,3.26.67,8.89,8.89,0,0,1,4.7,4.74,9.19,9.19,0,0,1,.72,3.66,9.24,9.24,0,0,1-2.63,6.56,8.65,8.65,0,0,1-2.78,1.88,8.29,8.29,0,0,1-3.27.67h-3.63Zm.78,17.5h2.76a7.76,7.76,0,0,0,3-.6,7.88,7.88,0,0,0,2.56-1.69,8.19,8.19,0,0,0,1.77-2.67,8.9,8.9,0,0,0,.66-3.47,8.7,8.7,0,0,0-.67-3.45,8.54,8.54,0,0,0-1.77-2.65,7.94,7.94,0,0,0-5.55-2.29H304Z"/><path d="M328.52,98.67a8.2,8.2,0,0,1-3.74.86,7,7,0,0,1-3-.63,7.64,7.64,0,0,1-2.39-1.66,8,8,0,0,1-1.59-2.44,7.47,7.47,0,0,1-.59-2.92,7.71,7.71,0,0,1,.55-2.9,7.56,7.56,0,0,1,1.52-2.44,7.39,7.39,0,0,1,2.32-1.68,6.73,6.73,0,0,1,2.9-.64,6.91,6.91,0,0,1,2.7.56,7.77,7.77,0,0,1,2.32,1.52,7.35,7.35,0,0,1,1.59,2.24,6.4,6.4,0,0,1,.6,2.73v.07h-13.7a2.11,2.11,0,0,0,0,.25v.26a6.75,6.75,0,0,0,.55,2.72A7.36,7.36,0,0,0,320,96.8a6.89,6.89,0,0,0,2.14,1.5,6.41,6.41,0,0,0,2.6.54,7.2,7.2,0,0,0,3.33-.79,9.32,9.32,0,0,0,2.59-1.91l.49.56A8.59,8.59,0,0,1,328.52,98.67Zm-6.26-13.31a6.33,6.33,0,0,0-1.93,1.22,7.12,7.12,0,0,0-1.42,1.82,7,7,0,0,0-.78,2.28h12.81a5.8,5.8,0,0,0-.7-2.25,6.8,6.8,0,0,0-3.45-3.07,5.94,5.94,0,0,0-2.25-.45A5.87,5.87,0,0,0,322.26,85.36Z"/><path d="M338.63,84.83a5.32,5.32,0,0,1,1.33.66v.83a5.7,5.7,0,0,0-1.34-.77,4.29,4.29,0,0,0-1.65-.3,3.58,3.58,0,0,0-2.19.64,2,2,0,0,0-.11,3.2,20.67,20.67,0,0,0,2.64,1.79,14.63,14.63,0,0,1,3.32,2.47,3.37,3.37,0,0,1,.92,2.28,3.25,3.25,0,0,1-.35,1.5,3.19,3.19,0,0,1-.92,1.11,4.45,4.45,0,0,1-1.38.68,5.71,5.71,0,0,1-1.67.24,7.42,7.42,0,0,1-2.21-.34,9.35,9.35,0,0,1-2-.88v-.85a11.87,11.87,0,0,0,2.14,1,6.3,6.3,0,0,0,2.1.39,4.13,4.13,0,0,0,2.55-.81,2.44,2.44,0,0,0,1-2,2.63,2.63,0,0,0-.15-.85,2.94,2.94,0,0,0-.56-.93,8.44,8.44,0,0,0-1.16-1.06A16.76,16.76,0,0,0,337,91.56c-.72-.42-1.32-.8-1.81-1.12A8,8,0,0,1,334,89.5a2.87,2.87,0,0,1-.65-.93,3,3,0,0,1-.19-1.08,2.5,2.5,0,0,1,.24-1,2.92,2.92,0,0,1,.73-.93,4,4,0,0,1,1.21-.69,4.69,4.69,0,0,1,1.65-.26A4.94,4.94,0,0,1,338.63,84.83Z"/><path d="M344.42,82.23h-.83V79.89h.83Zm-.05,16.64h-.73v-14h.73Z"/><path d="M360.17,100.31a6,6,0,0,1-1.5,2.27,5.24,5.24,0,0,1-2.21,1.17,10.46,10.46,0,0,1-2.65.33,17.84,17.84,0,0,1-2-.11,20.93,20.93,0,0,1-2.63-.47v-.66c1.15.24,2.07.41,2.76.49a12.46,12.46,0,0,0,1.87.09,9.13,9.13,0,0,0,2.38-.3,4.65,4.65,0,0,0,2-1.07,5.15,5.15,0,0,0,1.33-2.07,9.41,9.41,0,0,0,.49-3.3V94.36A6.42,6.42,0,0,1,358.81,96a7.34,7.34,0,0,1-1.5,1.19,6.33,6.33,0,0,1-1.67.73,5.92,5.92,0,0,1-1.69.25,7.66,7.66,0,0,1-2.78-.51,7.28,7.28,0,0,1-2.3-1.44A6.89,6.89,0,0,1,347.3,94a6.61,6.61,0,0,1-.58-2.79,6.72,6.72,0,0,1,2.13-5,7.13,7.13,0,0,1,2.31-1.45,7.56,7.56,0,0,1,2.79-.53,6.55,6.55,0,0,1,1.71.25,6.33,6.33,0,0,1,1.67.73,7.81,7.81,0,0,1,1.48,1.19A6.42,6.42,0,0,1,360,88V84.88h.76v11.8A10.18,10.18,0,0,1,360.17,100.31ZM356.23,97a6.32,6.32,0,0,0,2-1.34,6.65,6.65,0,0,0,1.32-2,6.42,6.42,0,0,0,0-4.87,6.57,6.57,0,0,0-1.32-2,6,6,0,0,0-2-1.35,5.8,5.8,0,0,0-2.4-.5,6,6,0,0,0-2.47.5,6.44,6.44,0,0,0-2,1.35,6.33,6.33,0,0,0-1.36,2,6.18,6.18,0,0,0,0,4.87,6.4,6.4,0,0,0,1.36,2,6.77,6.77,0,0,0,2,1.34,6.2,6.2,0,0,0,2.47.5A6,6,0,0,0,356.23,97Z"/><path d="M364.16,98.87h-.73v-14h.73v2.37a4.63,4.63,0,0,1,2-2,5.52,5.52,0,0,1,2.71-.73,4.69,4.69,0,0,1,5,5.26v9h-.73V90a6.12,6.12,0,0,0-.38-2.29,3.71,3.71,0,0,0-1-1.46,3.61,3.61,0,0,0-1.43-.77,6,6,0,0,0-1.63-.23,4.65,4.65,0,0,0-1.48.27,4.27,4.27,0,0,0-1.47.82,4.78,4.78,0,0,0-1.1,1.42,4.1,4.1,0,0,0-.46,2Z"/></g></g></svg>