<svg xmlns="http://www.w3.org/2000/svg" width="211.64" height="54.38" viewBox="0 0 211.64 54.38"><title>logosAsset 1</title><g id="Layer_2" data-name="Layer 2"><g id="Layer_1-2" data-name="Layer 1"><path d="M51.1,20.67l5.24-.11c1.29,0,1.94.09,1.94.27q0,.71-7.88,1.24-5,9.83-5,13.38c0,1.66.52,2.49,1.57,2.49a2.64,2.64,0,0,0,1.48-.73,3.31,3.31,0,0,1,1.08-.73c.13,0,.19.09.19.27a2.73,2.73,0,0,1-1.65,1.62,5.66,5.66,0,0,1-2.32.64,8.2,8.2,0,0,1-1.48-.1c-.86-.33-1.3-1.37-1.3-3.13q0-5.46,4.16-13.87l-6.48.16A136.07,136.07,0,0,1,26.12,34.48q-10.9,7.94-17,7.93a4.77,4.77,0,0,1-.76,0Q0,41.66,0,33.83A20.17,20.17,0,0,1,2.91,24,36.82,36.82,0,0,1,13.54,12.22q6.75-4.87,12.09-4.88T31,11.28a13.46,13.46,0,0,1-1.61,5.88q-1.62,3.24-3.3,4.1a1,1,0,0,1-.35,0c-.12,0-.19,0-.19-.1l1.78-2.92a9.62,9.62,0,0,0,1.84-5,6,6,0,0,0-.94-3.48,3.44,3.44,0,0,0-3-1.32q-4.21,0-10.06,4.7A30.44,30.44,0,0,0,6.23,24.71q-3,6.86-3.05,10.69,0,5.77,5.89,5.77,5.61,0,15.21-7.23,4.26-3.18,13.87-12a32.26,32.26,0,0,0-3.51.38c-2.3.43-3.38.36-3.23-.22.14-1.33.82-2,2.05-2a50.9,50.9,0,0,0,6,.44q4.63-4.28,13.86-14Q59.52,0,60.87,0c.39,0,.59.31.59.92A13.46,13.46,0,0,1,61,3.78,4.61,4.61,0,0,1,59.9,6.15,10,10,0,0,0,57.58,8.5a42.24,42.24,0,0,0-3.08,5.56C53.17,16.77,52,19,51.1,20.67ZM55.42,7.5l-13.82,13h3.19c.75,0,1.69.06,2.8.06Q49.17,17.44,55.42,7.5Z"/><path d="M57.2,33.4c0,1.08.59,1.62,1.78,1.62a9,9,0,0,0,4.59-1.89A26.05,26.05,0,0,0,69,28q.65-.87,1-.87c.25,0,.38.11.38.33a13.29,13.29,0,0,1-2.21,2.8q-5.4,5.94-9,5.94a5.29,5.29,0,0,1-3-.84,2.92,2.92,0,0,1-1.24-2.59,11.36,11.36,0,0,1,.92-4.07,71.9,71.9,0,0,1,5-9.23q6.32-10.24,9-10.25a1.89,1.89,0,0,1,1.1.4,1.29,1.29,0,0,1,.62.89l-4.77,6.42q-3.54,4.75-4.89,6.83c-.9,1.39-1.57,2.42-2,3.1s-.78,1.22-1,1.6-.47.87-.75,1.48A7.63,7.63,0,0,0,57.2,33.4Z"/><path d="M71,36.8a3.31,3.31,0,0,1-1.08-.16c-2.3-.65-3.45-1.94-3.45-3.89q0-3.77,4.74-8.74t8.53-5a3,3,0,0,1,2,.67,2.08,2.08,0,0,1,.79,1.65c0,2-1.52,3.94-4.56,5.77s-5.52,2.76-7.42,2.76a2.49,2.49,0,0,1-.76-.11A6.21,6.21,0,0,0,69,32.86c0,1.87.89,2.81,2.67,2.81s4.1-1.21,6.94-3.62a34.59,34.59,0,0,0,5.61-5.61c.32-.43.6-.65.84-.65s.35.11.35.33a1.87,1.87,0,0,1-.43.91,33.12,33.12,0,0,1-7,6.8Q73.82,36.8,71,36.8Zm10.2-15.54c0-.43-.46-.65-1.38-.65s-2.22.7-3.91,2.11a24,24,0,0,0-5.29,5.88,2.28,2.28,0,0,0,.7.11c1.37,0,3.19-.73,5.48-2.19a9.66,9.66,0,0,0,4.29-4.77A1.37,1.37,0,0,0,81.16,21.26Z"/><path d="M101.61,33.73Q97.73,37,95.16,37t-3.37-3.72a34.75,34.75,0,0,1-.38-4.53,72.52,72.52,0,0,0-9.88,12.68.51.51,0,0,1-.43.22c-.43,0-.64-.2-.64-.6a.36.36,0,0,1,.1-.27A84.91,84.91,0,0,1,91.41,26.82q.21-7.39.27-8.31-1.25.27-5.29,6.26a36.41,36.41,0,0,1-3.51,4.64c-1,1.08-1.61,1.7-1.8,1.86a1,1,0,0,1-.6.24c-.19,0-.29-.09-.29-.27a9.56,9.56,0,0,1,1.72-2.18A56.61,56.61,0,0,0,86.5,22.8a35,35,0,0,1,4.1-5.48,3.61,3.61,0,0,1,2.32-1.13,3.13,3.13,0,0,1,1.57.3.89.89,0,0,1,.35,1c-.09.49-.17.91-.22,1.27s-.1.77-.13,1.24c-.22,1.69-.35,3.08-.38,4.16Q96.75,21.63,106,13.76a.56.56,0,0,1,.38-.11c.18,0,.41.16.7.46a1.35,1.35,0,0,1,.43.92,1.27,1.27,0,0,1-.43.89c-1.15.93-3.15,2.44-6,4.5a77.47,77.47,0,0,0-7.1,5.7c0,.75,0,1.78,0,3.07a12.41,12.41,0,0,0,.48,3.56c.43,1.41,1.22,2.11,2.38,2.11q3.07,0,9.49-7.39.54-.54.81-.54c.18,0,.27.11.27.35a1.35,1.35,0,0,1-.43.83A50.33,50.33,0,0,1,101.61,33.73Z"/><path d="M123.09,20l.75-.17a1.69,1.69,0,0,1,1.13.49c.36.32.54.58.54.76a51.16,51.16,0,0,1-3.34,5.2c-2.23,3.29-3.35,5.59-3.35,6.88a1,1,0,0,0,.06.33c.18.82.57,1.24,1.18,1.24q2.81,0,10.26-9.28a.44.44,0,0,1,.37-.22c.15,0,.22.14.22.4a1.94,1.94,0,0,1-.49,1.06q-6.9,9.23-10.52,9.22a2.58,2.58,0,0,1-.92-.16,3.49,3.49,0,0,1-2.37-3.56,7.63,7.63,0,0,1,.22-1.83l-3.35,3.23c-2.12,1.88-3.66,2.81-4.61,2.81a4.58,4.58,0,0,1-2.73-.92,3.39,3.39,0,0,1-1.46-2.86q0-3.93,5.51-9.41t10.09-5.48a2.35,2.35,0,0,1,2.37,1.24c.11.29.2.53.27.73S123.05,20,123.09,20ZM107,33.24c0,1.3.45,1.94,1.35,1.94q3.14,0,8.53-6.85l5.72-7.88a1.51,1.51,0,0,0-1.41-.75q-3.28,0-8.74,5.1T107,33.24Z"/><path d="M136,19.05c1,0,1.45.38,1.45,1.13a1.42,1.42,0,0,1-.16.65q-4.86,6.75-5.83,10.2,12.57-12.57,15.27-12.57a2.33,2.33,0,0,1,.49-.06c1,0,1.51.45,1.51,1.35a1.49,1.49,0,0,1-.11.54,35.22,35.22,0,0,1-2.16,2.91,50.08,50.08,0,0,0-4,5.4,8.71,8.71,0,0,0-1.64,4.32c0,1.15.25,1.72.75,1.72q2.39,0,8.26-6.53a4.59,4.59,0,0,0,.38-.48c.54-.65.86-1,1-1s.16.18.16.54a2.46,2.46,0,0,1-.75,1.4q-6.71,7.6-9.5,7.61c-1.77,0-2.65-1-2.65-2.92a13.89,13.89,0,0,1,2.16-6.69L144.08,21a41.73,41.73,0,0,0-6.53,5.91q-2.87,3.21-5.21,6.23c-1.57,2-2.47,3-2.73,3a1.43,1.43,0,0,1-1.26-.67,2.88,2.88,0,0,1-.46-1.67,7.31,7.31,0,0,1,.7-2.67c.47-1.12,1.06-2.47,1.78-4.05l-3.24,3.4c-.79.79-1.28,1.19-1.48,1.19s-.3-.12-.3-.35a1.23,1.23,0,0,1,.43-.79,45.85,45.85,0,0,0,3.46-3.83q1.39-1.83,5.77-7A1.31,1.31,0,0,1,136,19.05Z"/><path d="M166.85,19.75q6-9.83,8.42-9.82a3.4,3.4,0,0,1,1,.24c.45.16.67.41.67.73a1.45,1.45,0,0,1-.27.7q-4.32,5.3-6.42,7.93-6.36,8.05-7,11.55a7.13,7.13,0,0,0-.17,1.51c0,1.62.67,2.43,2,2.43q4,0,10.42-7.39a2,2,0,0,1,.91-.62c.25-.06.38,0,.38.19a1.09,1.09,0,0,1-.32.64q-6.27,7.52-11.12,8.37a4.72,4.72,0,0,1-.75,0,2.86,2.86,0,0,1-2.51-1.16,4.19,4.19,0,0,1-.84-2.51,11.11,11.11,0,0,1,.59-3.34l-4.37,4.37c-2,1.83-3.53,2.75-4.67,2.75a4.32,4.32,0,0,1-2.83-.92,3.37,3.37,0,0,1-1.35-2.86q0-3.93,5.51-9.41t10.09-5.48a2.44,2.44,0,0,1,2.1.81A3.86,3.86,0,0,1,166.85,19.75ZM150.93,33.24c0,1.3.45,1.94,1.35,1.94,1.54,0,4.12-2.12,7.71-6.36q1-1.14,6.48-8.48a1.37,1.37,0,0,0-1.29-.64q-3.36,0-8.8,5.1T150.93,33.24Z"/><path d="M177.05,36.8a3.31,3.31,0,0,1-1.08-.16c-2.3-.65-3.46-1.94-3.46-3.89q0-3.77,4.75-8.74t8.53-5a3,3,0,0,1,2,.67,2.1,2.1,0,0,1,.78,1.65c0,2-1.52,3.94-4.56,5.77s-5.51,2.76-7.42,2.76a2.42,2.42,0,0,1-.75-.11,6.21,6.21,0,0,0-.81,3.07c0,1.87.89,2.81,2.67,2.81s4.09-1.21,6.94-3.62a34.59,34.59,0,0,0,5.61-5.61c.32-.43.6-.65.83-.65s.35.11.35.33A1.78,1.78,0,0,1,191,27a32.84,32.84,0,0,1-7,6.8Q179.9,36.8,177.05,36.8Zm10.2-15.54c0-.43-.46-.65-1.38-.65s-2.22.7-3.91,2.11a24,24,0,0,0-5.29,5.88,2.23,2.23,0,0,0,.7.11c1.37,0,3.19-.73,5.48-2.19a9.66,9.66,0,0,0,4.29-4.77A1.37,1.37,0,0,0,187.25,21.26Z"/><path d="M199.17,36.37q-4,0-4-4.48a12.45,12.45,0,0,1,1.19-5,22.06,22.06,0,0,1,2.59-4.54,3.31,3.31,0,0,1-.7.06c-.86,0-1.58-.61-2.16-1.84l-4,5.18q-3.35,4.16-3.89,4.16c-.18,0-.27-.07-.27-.22a2.91,2.91,0,0,1,.92-1.56,50.76,50.76,0,0,0,6.64-9.23c.82-3.13,1.87-4.69,3.13-4.69.82,0,1.24.36,1.24,1.08a4.91,4.91,0,0,1-1.35,2.75l-1.3,1.72q0,1.14,1.68,1.14a4.39,4.39,0,0,0,2.15-.7l1.41-.87a1.79,1.79,0,0,1,.54-.05,1.33,1.33,0,0,1,.92.54c.32.36.43.68.32,1l-3.72,4.69q-3.47,4.43-3.46,7c0,1.71.79,2.57,2.38,2.57s3.68-.89,6.09-2.65a25.35,25.35,0,0,0,3.94-3.51A12.21,12.21,0,0,1,211.26,27c.25,0,.38.14.38.41a1.55,1.55,0,0,1-.49.94l-1.73,1.94a32.81,32.81,0,0,1-3.23,2.92Q201.92,36.37,199.17,36.37Z"/><path d="M98.86,42.16h4.7v.35H99.27v3.86h4v.36h-4v4.92h-.41Z"/><path d="M109.9,50.42a2.5,2.5,0,0,1-1,1,3,3,0,0,1-1.42.38,3.21,3.21,0,0,1-1-.17,2.12,2.12,0,0,1-.83-.5,2.2,2.2,0,0,1-.55-.85,3.52,3.52,0,0,1-.2-1.23V44.35h.4V49a3.31,3.31,0,0,0,.19,1.21,2.07,2.07,0,0,0,.53.76,1.84,1.84,0,0,0,.74.4,3.12,3.12,0,0,0,.85.12,2.3,2.3,0,0,0,.78-.14,2.2,2.2,0,0,0,.76-.43,2.39,2.39,0,0,0,.58-.74,2.21,2.21,0,0,0,.24-1.06V44.35h.38v7.3h-.38Z"/><path d="M112.09,51.65h-.38v-7.3h.38V46a3.43,3.43,0,0,1,.31-.6,3,3,0,0,1,.46-.54,2.16,2.16,0,0,1,.59-.39,1.69,1.69,0,0,1,.7-.15h.19v.43l-.09,0h-.08a1.53,1.53,0,0,0-.86.26,2.59,2.59,0,0,0-.66.66,3,3,0,0,0-.41.86,2.84,2.84,0,0,0-.15.87Z"/><path d="M115.78,51.65h-.38v-7.3h.38v1.23a2.53,2.53,0,0,1,1-1,2.94,2.94,0,0,1,1.42-.38,2.46,2.46,0,0,1,2.61,2.75v4.72h-.39V47a3.25,3.25,0,0,0-.19-1.2,2,2,0,0,0-.52-.76,2,2,0,0,0-.75-.4,3.06,3.06,0,0,0-.85-.12,2.3,2.3,0,0,0-.78.14,2.13,2.13,0,0,0-.76.43,2.54,2.54,0,0,0-.58.74,2.16,2.16,0,0,0-.24,1Z"/><path d="M122.7,43h-.44V41.74h.44Zm0,8.69h-.38v-7.3h.38Z"/><path d="M125.09,44.7v6.95h-.39V44.7h-1.07v-.35h1.07V42.49l.39-.3v2.16h1.07v.35Z"/><path d="M132.21,50.42a2.53,2.53,0,0,1-1,1,2.94,2.94,0,0,1-1.42.38,3.19,3.19,0,0,1-1-.17,2.24,2.24,0,0,1-.84-.5,2.3,2.3,0,0,1-.54-.85,3.52,3.52,0,0,1-.2-1.23V44.35h.39V49a3.29,3.29,0,0,0,.2,1.21,2,2,0,0,0,.52.76,2,2,0,0,0,.75.4,3.06,3.06,0,0,0,.85.12,2.48,2.48,0,0,0,1.54-.57,2.54,2.54,0,0,0,.58-.74,2.21,2.21,0,0,0,.24-1.06V44.35h.38v7.3h-.38Z"/><path d="M134.4,51.65H134v-7.3h.38V46a2.86,2.86,0,0,1,.31-.6,2.63,2.63,0,0,1,.46-.54,2.16,2.16,0,0,1,.59-.39,1.66,1.66,0,0,1,.7-.15h.19v.43l-.09,0h-.09a1.55,1.55,0,0,0-.86.26,2.55,2.55,0,0,0-.65.66,3.27,3.27,0,0,0-.42.86,3.15,3.15,0,0,0-.14.87Z"/><path d="M143.07,51.55a4.24,4.24,0,0,1-1.95.45,3.69,3.69,0,0,1-1.55-.33,3.76,3.76,0,0,1-1.24-.87,4.08,4.08,0,0,1-.84-1.27,4,4,0,0,1-.3-1.53,4.14,4.14,0,0,1,.28-1.52,4.08,4.08,0,0,1,.8-1.27,4,4,0,0,1,1.21-.88A3.48,3.48,0,0,1,141,44a3.52,3.52,0,0,1,1.42.3,3.88,3.88,0,0,1,1.2.78,4,4,0,0,1,.84,1.18,3.3,3.3,0,0,1,.31,1.42v0h-7.15a.59.59,0,0,0,0,.13V48a3.61,3.61,0,0,0,.29,1.42,4,4,0,0,0,.76,1.16,3.64,3.64,0,0,0,1.12.78,3.32,3.32,0,0,0,1.36.29,3.84,3.84,0,0,0,1.74-.41,4.84,4.84,0,0,0,1.35-1l.26.29A4.59,4.59,0,0,1,143.07,51.55Zm-3.27-7a3.35,3.35,0,0,0-1,.64,3.76,3.76,0,0,0-.75,1,3.65,3.65,0,0,0-.41,1.19h6.7A3.07,3.07,0,0,0,144,46.2a3.58,3.58,0,0,0-.76-1,3.72,3.72,0,0,0-1-.65,3.17,3.17,0,0,0-2.37,0Z"/><path d="M154.16,51l-.6-.75a4.68,4.68,0,0,1-1.27,1.2,3.06,3.06,0,0,1-1.75.47,2.58,2.58,0,0,1-.93-.19,2.78,2.78,0,0,1-.82-.54,2.76,2.76,0,0,1-.81-2,2.31,2.31,0,0,1,.21-1,3.35,3.35,0,0,1,.52-.82,4.77,4.77,0,0,1,.73-.68c.28-.2.55-.41.83-.6-.39-.51-.71-1-1-1.31a2.12,2.12,0,0,1-.36-1.2,1.71,1.71,0,0,1,.56-1.29,2,2,0,0,1,1.43-.53,2.23,2.23,0,0,1,.9.16,1.81,1.81,0,0,1,.63.41,1.55,1.55,0,0,1,.37.58,1.76,1.76,0,0,1,.12.63,1.64,1.64,0,0,1-.17.77,2.48,2.48,0,0,1-.45.64,5.34,5.34,0,0,1-.65.58l-.75.57,0,0-.05,0,.58.72.67.84.72.9c.25.3.48.59.7.87a8.92,8.92,0,0,0,.47-.86c.14-.29.26-.57.37-.85l.36.22c-.12.29-.26.6-.41.91a8.4,8.4,0,0,1-.51.93l.89,1.12.46.57h-.51C154.51,51.48,154.34,51.28,154.16,51Zm-2,.07A5,5,0,0,0,153.29,50c-.25-.33-.52-.65-.79-1s-.53-.66-.77-1l-.69-.86-.51-.65-.73.51a5,5,0,0,0-.69.6,3,3,0,0,0-.52.75,2.12,2.12,0,0,0-.2.93,2.24,2.24,0,0,0,.19.93,2.67,2.67,0,0,0,.49.73,2.38,2.38,0,0,0,.69.48,1.85,1.85,0,0,0,.78.18A2.66,2.66,0,0,0,152.12,51.11ZM150.61,46l.11-.09.11-.07a13.17,13.17,0,0,0,1.21-1,1.57,1.57,0,0,0,.51-1.16,1.46,1.46,0,0,0-.09-.49,1.35,1.35,0,0,0-.28-.45,1.62,1.62,0,0,0-.51-.34,1.75,1.75,0,0,0-.72-.13,1.57,1.57,0,0,0-1.14.42,1.4,1.4,0,0,0-.44,1,1.78,1.78,0,0,0,.31,1c.21.32.51.72.89,1.2Z"/><path d="M158.41,42.16h1.9a4.21,4.21,0,0,1,1.7.35,4.56,4.56,0,0,1,1.45,1,4.75,4.75,0,0,1,1,1.5,5,5,0,0,1,0,3.83,4.68,4.68,0,0,1-1,1.51,4.27,4.27,0,0,1-1.45,1,4.21,4.21,0,0,1-1.7.35h-1.9Zm.41,9.14h1.44a4.24,4.24,0,0,0,2.91-1.2,4.38,4.38,0,0,0,.92-1.39,4.68,4.68,0,0,0,.34-1.82,4.38,4.38,0,0,0-.35-1.8,4.33,4.33,0,0,0-.92-1.38,4.14,4.14,0,0,0-1.33-.89,4.26,4.26,0,0,0-1.57-.31h-1.44Z"/><path d="M171.63,51.55a4.24,4.24,0,0,1-1.95.45,3.69,3.69,0,0,1-1.55-.33,3.91,3.91,0,0,1-1.25-.87,4.09,4.09,0,0,1-1.14-2.8,4.15,4.15,0,0,1,.29-1.52,4.08,4.08,0,0,1,.8-1.27,4,4,0,0,1,1.21-.88,3.54,3.54,0,0,1,2.92,0,3.82,3.82,0,0,1,1.21.78,4,4,0,0,1,.84,1.18,3.46,3.46,0,0,1,.31,1.42v0h-7.16s0,.09,0,.13V48a3.61,3.61,0,0,0,.29,1.42,3.82,3.82,0,0,0,.76,1.16,3.53,3.53,0,0,0,1.12.78,3.32,3.32,0,0,0,1.36.29,3.84,3.84,0,0,0,1.74-.41,5,5,0,0,0,1.35-1l.26.29A4.59,4.59,0,0,1,171.63,51.55Zm-3.27-7a3.54,3.54,0,0,0-1,.64,3.72,3.72,0,0,0-.74,1,3.65,3.65,0,0,0-.41,1.19h6.7a3.07,3.07,0,0,0-.37-1.18,3.58,3.58,0,0,0-.76-1,3.87,3.87,0,0,0-1-.65,3.17,3.17,0,0,0-2.37,0Z"/><path d="M176.92,44.32a3,3,0,0,1,.69.34v.44a2.83,2.83,0,0,0-.7-.4,2.13,2.13,0,0,0-.86-.16,1.88,1.88,0,0,0-1.14.33,1,1,0,0,0-.46.88,1.05,1.05,0,0,0,.4.79,9.19,9.19,0,0,0,1.37.94A7.73,7.73,0,0,1,178,48.77a1.76,1.76,0,0,1,.48,1.19,1.66,1.66,0,0,1-.18.78,1.61,1.61,0,0,1-.48.58,2.7,2.7,0,0,1-.72.36,3.17,3.17,0,0,1-.88.13,3.88,3.88,0,0,1-1.15-.18,4.65,4.65,0,0,1-1.06-.46v-.45a6.26,6.26,0,0,0,1.11.53,3.52,3.52,0,0,0,1.1.2,2.19,2.19,0,0,0,1.34-.42A1.28,1.28,0,0,0,178,50a1.17,1.17,0,0,0-.08-.44,1.34,1.34,0,0,0-.29-.49,3.72,3.72,0,0,0-.6-.55,9.92,9.92,0,0,0-1-.66c-.38-.22-.69-.41-1-.58a3.71,3.71,0,0,1-.61-.49,1.5,1.5,0,0,1-.34-.49,1.4,1.4,0,0,1-.1-.56,1.32,1.32,0,0,1,.12-.54,1.41,1.41,0,0,1,.39-.49,1.83,1.83,0,0,1,.63-.36,2.5,2.5,0,0,1,.86-.14A2.74,2.74,0,0,1,176.92,44.32Z"/><path d="M179.94,43h-.43V41.74h.43Zm0,8.69h-.39v-7.3h.39Z"/><path d="M188.17,52.4a3.06,3.06,0,0,1-.79,1.19,2.68,2.68,0,0,1-1.15.62,5.69,5.69,0,0,1-1.39.17,9.76,9.76,0,0,1-1-.06,11.5,11.5,0,0,1-1.38-.25v-.34c.61.13,1.09.21,1.45.25a5.58,5.58,0,0,0,1,.05,4.6,4.6,0,0,0,1.25-.16,2.42,2.42,0,0,0,1-.56,2.65,2.65,0,0,0,.69-1.08,5,5,0,0,0,.25-1.72V49.3a3.57,3.57,0,0,1-.6.84,4.17,4.17,0,0,1-.78.62,3.26,3.26,0,0,1-.88.38,3,3,0,0,1-.88.13,3.93,3.93,0,0,1-1.45-.27,3.52,3.52,0,0,1-1.21-.75,3.7,3.7,0,0,1-.82-1.15,3.68,3.68,0,0,1,0-2.91,3.67,3.67,0,0,1,.81-1.16,3.85,3.85,0,0,1,1.21-.75,3.79,3.79,0,0,1,1.46-.28,3.14,3.14,0,0,1,.89.13,3.07,3.07,0,0,1,.87.38,3.85,3.85,0,0,1,.78.63,3.2,3.2,0,0,1,.6.84V44.35h.4v6.16A5.36,5.36,0,0,1,188.17,52.4Zm-2.06-1.75a3,3,0,0,0,1-.7,3.33,3.33,0,0,0,.69-1,3.25,3.25,0,0,0,.26-1.28,3.21,3.21,0,0,0-.26-1.27,3.26,3.26,0,0,0-.69-1,3.07,3.07,0,0,0-1-.71,3.15,3.15,0,0,0-1.25-.26,3.35,3.35,0,0,0-1.3.26,3.3,3.3,0,0,0-1.05.71,3.34,3.34,0,0,0-.72,1,3.21,3.21,0,0,0-.26,1.27,3.25,3.25,0,0,0,.26,1.28,3.41,3.41,0,0,0,.72,1,3.27,3.27,0,0,0,1.05.7,3.18,3.18,0,0,0,1.3.26A3,3,0,0,0,186.11,50.65Z"/><path d="M190.25,51.65h-.38v-7.3h.38v1.23a2.53,2.53,0,0,1,1-1,3,3,0,0,1,1.42-.38,2.46,2.46,0,0,1,2.61,2.75v4.72h-.38V47a3.24,3.24,0,0,0-.2-1.2,2,2,0,0,0-.52-.76,2,2,0,0,0-.75-.4,3.06,3.06,0,0,0-.85-.12,2.3,2.3,0,0,0-.78.14,2.13,2.13,0,0,0-.76.43,2.54,2.54,0,0,0-.58.74,2.16,2.16,0,0,0-.24,1Z"/></g></g></svg>